<svg width="22" height="19" viewBox="0 0 22 19" fill="none" xmlns="http://www.w3.org/2000/svg">
<path fill-rule="evenodd" clip-rule="evenodd" d="M9.22237 0.481845C9.58491 0.17092 10.0468 0 10.5244 0C11.002 0 11.4638 0.17092 11.8264 0.481845L18.1624 5.91184L20.6494 7.90184C20.7519 7.98392 20.8373 8.08539 20.9007 8.20047C20.964 8.31555 21.0041 8.44198 21.0186 8.57254C21.033 8.7031 21.0217 8.83523 20.9851 8.96139C20.9485 9.08756 20.8874 9.20528 20.8054 9.30784C20.7233 9.41041 20.6218 9.4958 20.5067 9.55914C20.3917 9.62249 20.2652 9.66255 20.1347 9.67704C20.0041 9.69152 19.872 9.68015 19.7458 9.64357C19.6197 9.60699 19.5019 9.54592 19.3994 9.46384L18.5244 8.76385V16.6828C18.5244 17.2133 18.3137 17.722 17.9386 18.0971C17.5635 18.4721 17.0548 18.6828 16.5244 18.6828H12.5244V13.6828C12.5244 13.1524 12.3137 12.6437 11.9386 12.2686C11.5635 11.8936 11.0548 11.6828 10.5244 11.6828C9.99393 11.6828 9.48523 11.8936 9.11015 12.2686C8.73508 12.6437 8.52437 13.1524 8.52437 13.6828V18.6828H4.52437C3.99393 18.6828 3.48523 18.4721 3.11015 18.0971C2.73508 17.722 2.52437 17.2133 2.52437 16.6828V8.76284L1.64937 9.46284C1.5475 9.54983 1.4292 9.61546 1.30148 9.65584C1.17376 9.69623 1.03923 9.71054 0.905879 9.69793C0.772523 9.68532 0.64306 9.64605 0.525173 9.58245C0.407286 9.51885 0.303379 9.43221 0.219619 9.32767C0.13586 9.22314 0.0739548 9.10285 0.037579 8.97393C0.00120328 8.84502 -0.00890172 8.7101 0.00786374 8.57721C0.0246292 8.44431 0.0679234 8.31614 0.135177 8.20029C0.20243 8.08445 0.292271 7.9833 0.399367 7.90284L2.88637 5.91284L9.22237 0.481845Z" fill="black"/>
</svg>
