<svg width="50" height="53" viewBox="0 0 50 53" fill="none" xmlns="http://www.w3.org/2000/svg">
<path d="M28.8425 53C36.4642 53 43.7737 50.0632 49.1631 44.8356C43.1983 27.2853 37.5332 18.9392 22.8289 7.01157L12.747 0.491821C12.4735 0.315122 12.1669 0.192471 11.8445 0.130886C11.5221 0.069301 11.1903 0.0699921 10.8682 0.13292C10.5461 0.195848 10.24 0.319778 9.96727 0.497614C9.6946 0.675451 9.46076 0.903703 9.27914 1.16931C3.19115 10.0703 0.10498 18.1304 0.10498 25.1249C0.10498 32.5179 3.13268 39.608 8.52202 44.8356C13.9114 50.0632 21.2209 53 28.8425 53Z" fill="#E5E5E5"/>
</svg>
